<?xml version="1.0" encoding="UTF-8"?><!DOCTYPE svg PUBLIC "-//W3C//DTD SVG 1.1//EN" "http://www.w3.org/Graphics/SVG/1.1/DTD/svg11.dtd"><svg xmlns="http://www.w3.org/2000/svg" xmlns:xlink="http://www.w3.org/1999/xlink"><symbol id="account" viewBox="0 0 20 20"><path class="st0" d="M10 0C4.5 0 0 4.5 0 10s4.5 10 10 10 10-4.5 10-10S15.5 0 10 0zM5.1 16.3c.4-.9 3-1.8 4.9-1.8s4.5.9 4.9 1.8c-1.3 1.1-3 1.7-4.9 1.7s-3.6-.6-4.9-1.7zm11.3-1.5c-1.4-1.7-4.9-2.3-6.4-2.3s-4.9.6-6.4 2.3c-1-1.3-1.6-3-1.6-4.8 0-4.4 3.6-8 8-8s8 3.6 8 8c0 1.8-.6 3.5-1.6 4.8zM10 4C8.1 4 6.5 5.6 6.5 7.5S8.1 11 10 11s3.5-1.6 3.5-3.5S11.9 4 10 4zm0 5c-.8 0-1.5-.7-1.5-1.5S9.2 6 10 6s1.5.7 1.5 1.5S10.8 9 10 9z"/></symbol><symbol id="arrow"><path d="M16 16l-1.41-1.41L9 20.17V0H7v20.17l-5.58-5.59L0 16l8 8 8-8z" fill="#fff"/></symbol><symbol id="inst" viewBox="0 0 20 20"><path class="st0" d="M5.8 0h8.4C17.4 0 20 2.6 20 5.8v8.4c0 3.2-2.6 5.8-5.8 5.8H5.8C2.6 20 0 17.4 0 14.2V5.8C0 2.6 2.6 0 5.8 0zm-.2 2C3.6 2 2 3.6 2 5.6v8.8c0 2 1.6 3.6 3.6 3.6h8.8c2 0 3.6-1.6 3.6-3.6V5.6c0-2-1.6-3.6-3.6-3.6H5.6zm9.7 1.5c.7 0 1.3.6 1.3 1.3 0 .7-.6 1.3-1.3 1.3S14 5.4 14 4.8c0-.7.6-1.3 1.3-1.3zM10 5c2.8 0 5 2.2 5 5s-2.2 5-5 5-5-2.2-5-5 2.2-5 5-5zm0 2c-1.7 0-3 1.3-3 3s1.3 3 3 3 3-1.3 3-3-1.3-3-3-3z"/></symbol><symbol id="link_arrow" viewBox="0 0 24 16"><path class="st0" d="M16 0l-1.4 1.4L20.2 7H0v2h20.2l-5.6 5.6L16 16l8-8-8-8z"/></symbol><symbol id="twitter" viewBox="0 0 24 24"><path class="st0" d="M22.5 6c-.8.3-1.6.6-2.5.7.9-.5 1.6-1.4 1.9-2.4-.8.5-1.7.8-2.7 1C18.4 4.5 17.3 4 16 4c-2.4 0-4.3 1.9-4.3 4.3 0 .3 0 .7.1 1C8.3 9.1 5.1 7.4 3 4.8c-.4.6-.6 1.4-.6 2.1 0 1.5.8 2.8 1.9 3.6-.7 0-1.4-.2-1.9-.5v.1c0 2.1 1.5 3.8 3.4 4.2-.4.1-.7.2-1.1.2-.3 0-.5 0-.8-.1.5 1.7 2.1 2.9 4 3-1.5 1.2-3.3 1.8-5.3 1.8-.3 0-.7 0-1-.1C3.4 20.3 5.7 21 8.1 21c7.9 0 12.2-6.5 12.2-12.2v-.6c.9-.6 1.6-1.3 2.2-2.2z"/></symbol></svg>