<?xml version="1.0" encoding="utf-8"?>
<!-- Generator: Adobe Illustrator 24.1.2, SVG Export Plug-In . SVG Version: 6.00 Build 0)  -->
<svg version="1.1" id="Слой_1" xmlns="http://www.w3.org/2000/svg" xmlns:xlink="http://www.w3.org/1999/xlink" x="0px" y="0px"
	 viewBox="0 0 20 20" style="enable-background:new 0 0 20 20;" xml:space="preserve">
<path class="st0" d="M5.8,0h8.4C17.4,0,20,2.6,20,5.8v8.4c0,3.2-2.6,5.8-5.8,5.8H5.8C2.6,20,0,17.4,0,14.2V5.8C0,2.6,2.6,0,5.8,0z
	 M5.6,2C3.6,2,2,3.6,2,5.6v8.8c0,2,1.6,3.6,3.6,3.6h8.8c2,0,3.6-1.6,3.6-3.6V5.6c0-2-1.6-3.6-3.6-3.6H5.6z M15.3,3.5
	c0.7,0,1.3,0.6,1.3,1.3c0,0.7-0.6,1.3-1.3,1.3S14,5.4,14,4.8C14,4.1,14.6,3.5,15.3,3.5z M10,5c2.8,0,5,2.2,5,5c0,2.8-2.2,5-5,5
	c-2.8,0-5-2.2-5-5C5,7.2,7.2,5,10,5z M10,7c-1.7,0-3,1.3-3,3c0,1.7,1.3,3,3,3s3-1.3,3-3C13,8.3,11.7,7,10,7z"/>
</svg>
