<?xml version="1.0" standalone="no"?>
<!DOCTYPE svg PUBLIC "-//W3C//DTD SVG 20010904//EN"
 "http://www.w3.org/TR/2001/REC-SVG-20010904/DTD/svg10.dtd">
<svg version="1.0" xmlns="http://www.w3.org/2000/svg"
 width="512.000000pt" height="512.000000pt" viewBox="0 0 512.000000 512.000000"
 preserveAspectRatio="xMidYMid meet">
<metadata>
Created by potrace 1.11, written by Peter Selinger 2001-2013
</metadata>
<g transform="translate(0.000000,512.000000) scale(0.100000,-0.100000)"
fill="#000000" stroke="none">
<path d="M2586 3371 l-433 -578 328 -438 c181 -242 328 -442 327 -447 -2 -4
-84 -68 -183 -143 -139 -104 -182 -132 -191 -122 -6 6 -235 311 -509 677 -273
366 -505 673 -515 683 -16 18 -26 6 -231 -268 -118 -158 -219 -292 -224 -299
-6 -6 -75 -99 -155 -206 -80 -107 -147 -197 -150 -200 -3 -3 -57 -75 -120
-160 -63 -85 -117 -157 -120 -160 -3 -3 -92 -122 -199 -265 -107 -143 -198
-265 -202 -270 -6 -8 775 -11 2551 -11 l2559 0 -23 31 c-12 16 -454 606 -982
1310 -527 704 -962 1284 -967 1290 -4 5 -32 43 -63 83 -30 39 -57 72 -60 72
-2 0 -199 -260 -438 -579z"/>
</g>
</svg>
